<svg xmlns="http://www.w3.org/2000/svg" viewBox="0 0 1080 1080"><defs><style>.cls-1{font-size:52.7px;font-family:Gilroy-ExtraBold, Gilroy;font-weight:800;letter-spacing:0.15em;}.cls-1,.cls-4{fill:#414042;}.cls-2{letter-spacing:0.13em;}.cls-3{fill:#f33535;}.cls-5,.cls-6{fill:none;stroke-linecap:round;stroke-miterlimit:10;stroke-width:9px;}.cls-5{stroke:#414042;}.cls-6{stroke:#f33535;}</style></defs><g id="Layer_1" data-name="Layer 1"><text class="cls-1" transform="translate(808.09 668.94)">10<tspan class="cls-2" x="70.25" y="0">6</tspan><tspan x="106.62" y="0">.5</tspan></text><path class="cls-3" d="M194.67,585.57c0,24.17-21,34.48-43.73,34.48-21,0-37-8-45.2-25l27.33-15.56c2.74,8,8.62,12.41,17.87,12.41,7.57,0,11.35-2.32,11.35-6.52,0-11.57-51.71-5.47-51.71-41.84,0-22.91,19.34-34.48,41.2-34.48,17,0,32.17,7.57,41,22.5l-26.91,14.51c-2.94-5.47-7.15-9.26-14.09-9.26-5.46,0-8.83,2.11-8.83,5.89C143,554.67,194.67,546.68,194.67,585.57Z"/><path class="cls-3" d="M356.54,512,322.91,617.1H293.47L276.66,561,259.84,617.1H230.41L196.77,512h33.64l15.13,56.34L261.94,512h29.43l16.4,56.34L322.91,512Z"/><path class="cls-3" d="M418.34,591.88c8.62,0,16-3.37,20.19-8l25.22,14.5c-10.3,14.3-25.85,21.66-45.83,21.66-35.94,0-58.23-24.18-58.23-55.5S382.4,509,415.61,509c30.7,0,53.4,23.76,53.4,55.51a61.21,61.21,0,0,1-1.26,12.61H393.12C397.11,588.09,406.78,591.88,418.34,591.88Zm19.35-38.27C434.32,541.42,424.86,537,415.4,537c-12,0-20,5.89-22.91,16.61Z"/><path class="cls-3" d="M539.22,591.88c8.62,0,16-3.37,20.18-8l25.23,14.5c-10.3,14.3-25.86,21.66-45.83,21.66-35.95,0-58.23-24.18-58.23-55.5S503.27,509,536.49,509c30.69,0,53.4,23.76,53.4,55.51a61.21,61.21,0,0,1-1.26,12.61H514C518,588.09,527.66,591.88,539.22,591.88Zm19.34-38.27C555.2,541.42,545.74,537,536.28,537c-12,0-20,5.89-22.92,16.61Z"/><path class="cls-3" d="M666.19,542.26V512h-70v30.28H613v37.22c0,29.43,12,41.82,53.19,37.63V588.5c-13.87.85-21.65,0-21.65-9V542.26Z"/><path class="cls-4" d="M777,512h35.55v30.27H777V617.1H745.44V542.26H731.36V512h14.08c0-29.43,16.19-47.09,51.09-45v30.27C784.76,496.22,777,499.79,777,512Z"/><path class="cls-4" d="M925.82,509.05c-14.93,0-24.6,5.47-30.49,13.87-5.88-8.83-15.13-13.87-27.53-13.87-14.09,0-23.34,5.47-28.18,12.61V512H808.09V617.11h31.53V557.82c0-12.4,5.89-19.76,16.4-19.76,10.09,0,15.14,6.73,15.14,17.24v61.81h31.53V557.82c0-12.4,5.89-19.76,16.4-19.76,10.09,0,15.14,6.73,15.14,17.24v22.91h31.53V552.57C965.76,526.29,950,509.05,925.82,509.05Z"/><rect class="cls-3" x="934.23" y="586.85" width="31.53" height="30.26"/><path class="cls-5" d="M691.63,497.46a68.46,68.46,0,1,0-120.87,0"/><path class="cls-6" d="M668.88,485.81a42.91,42.91,0,1,0-75.38,0"/><path class="cls-4" d="M655.42,465.28a24.23,24.23,0,1,1-24.23-24.23A24,24,0,0,1,655.42,465.28Z"/></g></svg>